<svg xmlns="http://www.w3.org/2000/svg" style="display: none;">
  <symbol id="icon-links" width="18" height="18" viewBox="0 0 18 18" fill="none">
    <path d="M9 1.92892L6.17158 4.75735L7.58579 6.17156L10.4142 3.34313C11.5809 2.17641 13.4901 2.17641 14.6569 3.34313C15.8236 4.50986 15.8236 6.41905 14.6569 7.58578L11.8284 10.4142L13.2426 11.8284L16.0711 8.99999C18.0227 7.04837 18.0227 3.88054 16.0711 1.92892C14.1195 -0.0226938 10.9516 -0.0226939 9 1.92892ZM10.4142 11.8284L7.58579 14.6568C6.41906 15.8236 4.50988 15.8236 3.34315 14.6568C2.17642 13.4901 2.17642 11.5809 3.34315 10.4142L6.17158 7.58578L4.75736 6.17156L1.92894 8.99999C-0.0226787 10.9516 -0.0226787 14.1194 1.92894 16.0711C3.88055 18.0227 7.04839 18.0227 9 16.0711L11.8284 13.2426L10.4142 11.8284ZM5.46447 11.1213L11.1213 5.46445L12.5355 6.87867L6.87868 12.5355L5.46447 11.1213Z" fill="white"/>
  </symbol>
  <symbol id="icon-contacts" width="20" height="14" viewBox="0 0 20 14" fill="none">
    <path d="M7 8.75C4.66 8.75 0 9.92 0 12.25V14H14V12.25C14 9.92 9.34 8.75 7 8.75ZM2.34 12C3.18 11.42 5.21 10.75 7 10.75C8.79 10.75 10.82 11.42 11.66 12H2.34ZM7 7C8.93 7 10.5 5.43 10.5 3.5C10.5 1.57 8.93 0 7 0C5.07 0 3.5 1.57 3.5 3.5C3.5 5.43 5.07 7 7 7ZM7 2C7.83 2 8.5 2.67 8.5 3.5C8.5 4.33 7.83 5 7 5C6.17 5 5.5 4.33 5.5 3.5C5.5 2.67 6.17 2 7 2ZM14.04 8.81C15.2 9.65 16 10.77 16 12.25V14H20V12.25C20 10.23 16.5 9.08 14.04 8.81ZM13 7C14.93 7 16.5 5.43 16.5 3.5C16.5 1.57 14.93 0 13 0C12.46 0 11.96 0.13 11.5 0.35C12.13 1.24 12.5 2.33 12.5 3.5C12.5 4.67 12.13 5.76 11.5 6.65C11.96 6.87 12.46 7 13 7Z" fill="white"/>
  </symbol>
  <symbol id="icon-union" width="16" height="16" viewBox="0 0 16 16" fill="none">
    <path fill-rule="evenodd" clip-rule="evenodd" d="M3 16L3.5 12H0V10H3.75L4.25 6H0V4H4.5L5 0H7L6.5 4H10.5L11 0H13L12.5 4H16V6H12.25L11.75 10H16V12H11.5L11 16H9L9.5 12H5.5L5 16H3ZM9.75 10L10.25 6H6.25L5.75 10H9.75Z" fill="white"/>
  </symbol>
  <symbol id="icon-star" width="20" height="19" viewBox="0 0 20 19" fill="none">
    <path d="M20 7.24L12.81 6.62L10 0L7.19 6.63L0 7.24L5.46 11.97L3.82 19L10 15.27L16.18 19L14.55 11.97L20 7.24ZM10 13.4L6.24 15.67L7.24 11.39L3.92 8.51L8.3 8.13L10 4.1L11.71 8.14L16.09 8.52L12.77 11.4L13.77 15.68L10 13.4Z" fill="white"/>
  </symbol>
  <symbol id="icon-history" width="21" height="18" viewBox="0 0 21 18" fill="none">
    <path d="M12 0C7.03 0 3 4.03 3 9H0L3.89 12.89L3.96 13.03L8 9H5C5 5.13 8.13 2 12 2C15.87 2 19 5.13 19 9C19 12.87 15.87 16 12 16C10.07 16 8.32 15.21 7.06 13.94L5.64 15.36C7.27 16.99 9.51 18 12 18C16.97 18 21 13.97 21 9C21 4.03 16.97 0 12 0ZM11 5V10L15.25 12.52L16.02 11.24L12.5 9.15V5H11Z" fill="white"/>  
  </symbol>
  <symbol id="icon-search" width="18" height="18" viewBox="0 0 18 18" fill="none">
    <path d="M12.5 11H11.71L11.43 10.73C12.41 9.59 13 8.11 13 6.5C13 2.91 10.09 0 6.5 0C2.91 0 0 2.91 0 6.5C0 10.09 2.91 13 6.5 13C8.11 13 9.59 12.41 10.73 11.43L11 11.71V12.5L16 17.49L17.49 16L12.5 11ZM6.5 11C4.01 11 2 8.99 2 6.5C2 4.01 4.01 2 6.5 2C8.99 2 11 4.01 11 6.5C11 8.99 8.99 11 6.5 11Z" fill="white"/>
  </symbol>
  <symbol id="icon-add" width="24" height="24" viewBox="0 0 24 24" fill="none">
   <path fill-rule="evenodd" clip-rule="evenodd" d="M12 24C18.6274 24 24 18.6274 24 12C24 5.37258 18.6274 0 12 0C5.37256 0 0 5.37258 0 12C0 18.6274 5.37256 24 12 24ZM13 13H19V11H13V5H11V11H5V13H11V19H13V13Z" fill="white"/>
  </symbol>
  <symbol id="icon-notification" width="24" height="24" viewBox="0 0 24 24" fill="none">
    <path d="M8 20C9.1 20 10 19.1 10 18H6C6 19.1 6.9 20 8 20ZM14 14V9C14 5.93 12.37 3.36 9.5 2.68V2C9.5 1.17 8.83 0.5 8 0.5C7.17 0.5 6.5 1.17 6.5 2V2.68C3.64 3.36 2 5.92 2 9V14L0 16V17H16V16L14 14ZM12 15H4V9C4 6.52 5.51 4.5 8 4.5C10.49 4.5 12 6.52 12 9V15Z" fill="white"/>
  </symbol>
  <symbol id="icon-sidebar" width="24" height="24" viewBox="0 0 24 24" fill="none">
    <path fill-rule="evenodd" clip-rule="evenodd" d="M0 2V0H18V2H0ZM0 7H18V5H0V7ZM0 12H18V10H0V12Z" fill="white"/>
  </symbol>
  <symbol id="icon-arrow" width="24" height="24" viewBox="0 0 24 24" fill="none">
    <path d="M16 7H3.83L9.42 1.41L8 0L0 8L8 16L9.41 14.59L3.83 9H16V7Z" fill="#2A3033"/>
  </symbol>
</svg>

